<svg height="50" viewBox="0 0 50 50" width="50" xmlns="http://www.w3.org/2000/svg"><path d="m39.5018023 48.807c.532-.053 1.015-.307 1.313-.74s.439-.935.346-1.465l-2.443-14.892 10.699-10.617c.529-.495.721-1.252.483-1.954-.204-.686-.825-1.196-1.519-1.298l-14.896-2.273-6.778-13.499c-.327-.656-.98-1.069-1.71-1.069-.729 0-1.39.413-1.71 1.069l-6.761 13.499-14.91399995 2.273c-.71.102-1.297.612-1.518 1.298-.221.702-.046 1.458.467 1.954l10.71499995 10.617-2.44299995 14.892c-.122.729.172 1.459.76 1.861.58699995.436 1.36899995.486 2.02399995.145l13.38-6.934 13.38 6.934c.343.191.735.248 1.125.199z" fill="#fff"/></svg>